# This file uses centimeters as units for non-parametric coordinates.

mtllib googly_eye.mtl
g default
v 0.365410 0.026718 -0.365410
v 0.000000 0.026718 -0.516768
v -0.365410 0.026718 -0.365410
v -0.516768 0.026718 0.000000
v -0.365410 0.026718 0.365410
v 0.000000 0.026718 0.516768
v 0.365410 0.026718 0.365410
v 0.516768 0.026718 0.000000
v 0.365410 0.249281 -0.365410
v 0.000000 0.249281 -0.516768
v -0.365410 0.249281 -0.365410
v -0.516768 0.249281 0.000000
v -0.365410 0.249281 0.365410
v 0.000000 0.249281 0.516768
v 0.365410 0.249281 0.365410
v 0.516768 0.249281 0.000000
v 0.000000 0.026718 0.000000
v 0.000000 0.249281 0.000000
vt 0.993813 0.393398
vt 0.895659 0.296375
vt 0.757648 0.297175
vt 0.660625 0.395330
vt 0.661425 0.533341
vt 0.759579 0.630364
vt 0.897590 0.629564
vt 0.994613 0.531409
vt 0.486209 0.000000
vt 0.550433 0.000000
vt 0.614657 0.000000
vt 0.678880 0.000000
vt 0.743104 0.000000
vt 0.807328 0.000000
vt 0.871552 0.000000
vt 0.935776 0.000000
vt 1.000000 0.000000
vt 0.486209 0.219404
vt 0.550433 0.219404
vt 0.614657 0.219404
vt 0.678880 0.219404
vt 0.743104 0.219404
vt 0.807328 0.219404
vt 0.871552 0.219404
vt 0.935776 0.219404
vt 1.000000 0.219404
vt 0.995259 0.763661
vt 0.897364 0.666376
vt 0.759351 0.666808
vt 0.662067 0.764703
vt 0.662498 0.902715
vt 0.760393 1.000000
vt 0.898406 0.999569
vt 0.995691 0.901674
vt 0.830341 0.456690
vt 0.831618 0.826516
vn 0.533284 -0.656670 -0.533284
vn 0.000000 -0.656670 -0.754178
vn 0.000000 0.656670 -0.754178
vn 0.533284 0.656670 -0.533284
vn -0.533284 -0.656670 -0.533284
vn -0.533284 0.656670 -0.533284
vn -0.754178 -0.656670 -0.000000
vn -0.754178 0.656670 -0.000000
vn -0.533284 -0.656670 0.533284
vn -0.533284 0.656670 0.533284
vn -0.000000 -0.656670 0.754178
vn -0.000000 0.656670 0.754178
vn 0.533284 -0.656670 0.533284
vn 0.533284 0.656670 0.533284
vn 0.754178 -0.656670 -0.000000
vn 0.754178 0.656670 -0.000000
vn 0.000000 -1.000000 -0.000000
vn 0.000000 1.000000 -0.000000
s 1
g pupil1
usemtl lambert3SG
f 1/9/1 2/10/2 10/19/3 9/18/4
f 2/10/2 3/11/5 11/20/6 10/19/3
f 3/11/5 4/12/7 12/21/8 11/20/6
f 4/12/7 5/13/9 13/22/10 12/21/8
f 5/13/9 6/14/11 14/23/12 13/22/10
f 6/14/11 7/15/13 15/24/14 14/23/12
f 7/15/13 8/16/15 16/25/16 15/24/14
f 8/16/15 1/17/1 9/26/4 16/25/16
f 2/2/2 1/1/1 17/35/17
f 3/3/5 2/2/2 17/35/17
f 4/4/7 3/3/5 17/35/17
f 5/5/9 4/4/7 17/35/17
f 6/6/11 5/5/9 17/35/17
f 7/7/13 6/6/11 17/35/17
f 8/8/15 7/7/13 17/35/17
f 1/1/1 8/8/15 17/35/17
f 9/33/4 10/32/3 18/36/18
f 10/32/3 11/31/6 18/36/18
f 11/31/6 12/30/8 18/36/18
f 12/30/8 13/29/10 18/36/18
f 13/29/10 14/28/12 18/36/18
f 14/28/12 15/27/14 18/36/18
f 15/27/14 16/34/16 18/36/18
f 16/34/16 9/33/4 18/36/18
g default
v 1.255815 -0.063877 -0.604768
v 0.869051 -0.063877 -1.089754
v 0.310162 -0.063877 -1.358902
v -0.310160 -0.063877 -1.358902
v -0.869049 -0.063877 -1.089755
v -1.255813 -0.063877 -0.604769
v -1.393848 -0.063877 -0.000001
v -1.255813 -0.063877 0.604767
v -0.869049 -0.063877 1.089754
v -0.310160 -0.063877 1.358901
v 0.310162 -0.063877 1.358901
v 0.869051 -0.063877 1.089754
v 1.255815 -0.063877 0.604768
v 1.393849 -0.063877 -0.000001
v 1.255815 0.063877 -0.604768
v 0.869051 0.063877 -1.089754
v 0.310162 0.063877 -1.358902
v -0.310160 0.063877 -1.358902
v -0.869049 0.063877 -1.089755
v -1.255813 0.063877 -0.604769
v -1.393848 0.063877 -0.000001
v -1.255813 0.063877 0.604767
v -0.869049 0.063877 1.089754
v -0.310160 0.063877 1.358901
v 0.310162 0.063877 1.358901
v 0.869051 0.063877 1.089754
v 1.255815 0.063877 0.604768
v 1.393849 0.063877 -0.000001
v 0.000000 -0.063877 -0.000001
v 0.000000 0.721803 -0.000001
v 1.255815 0.363897 -0.604768
v 1.071005 0.573619 -0.515768
v 0.741158 0.573619 -0.929383
v 0.869051 0.363897 -1.089754
v 0.264518 0.573619 -1.158922
v 0.310162 0.363897 -1.358902
v -0.264516 0.573619 -1.158922
v -0.310160 0.363897 -1.358902
v -0.741157 0.573619 -0.929383
v -0.869049 0.363897 -1.089755
v -1.071004 0.573619 -0.515769
v -1.255813 0.363897 -0.604769
v -1.188725 0.573619 -0.000001
v -1.393848 0.363897 -0.000001
v -1.071004 0.573619 0.515767
v -1.255813 0.363897 0.604767
v -0.741156 0.573619 0.929383
v -0.869049 0.363897 1.089754
v -0.264517 0.573619 1.158921
v -0.310160 0.363897 1.358901
v 0.264518 0.573619 1.158921
v 0.310162 0.363897 1.358901
v 0.741158 0.573619 0.929383
v 0.869051 0.363897 1.089754
v 1.071005 0.573619 0.515768
v 1.255815 0.363897 0.604768
v 1.188727 0.573619 -0.000001
v 1.393849 0.363897 -0.000001
vt 0.128363 0.019428
vt 0.063943 0.059274
vt 0.023556 0.122530
vt 0.014062 0.196146
vt 0.036876 0.266200
vt 0.086965 0.319545
vt 0.154778 0.346269
vt 0.227326 0.341560
vt 0.290990 0.306440
vt 0.333731 0.247414
vt 0.347302 0.175502
vt 0.328780 0.104235
vt 0.281256 0.047216
vt 0.213134 0.015985
vt 0.123829 0.003489
vt 0.052803 0.047943
vt 0.008882 0.117207
vt -0.001338 0.197597
vt 0.023662 0.274008
vt 0.078401 0.332198
vt 0.152426 0.361311
vt 0.231600 0.356149
vt 0.301088 0.317844
vt 0.347769 0.253451
vt 0.362667 0.174975
vt 0.342549 0.097162
vt 0.290817 0.034754
vt 0.215988 -0.000380
vt 0.180782 0.183489
vt 0.473307 0.826558
vt 0.382802 0.879434
vt 0.262480 0.880672
vt 0.179812 0.830742
vt 0.126830 0.751288
vt 0.112039 0.658507
vt 0.136723 0.569190
vt 0.195644 0.498727
vt 0.278147 0.458979
vt 0.369964 0.456873
vt 0.455200 0.493257
vt 0.518494 0.562649
vt 0.547607 0.653643
vt 0.535085 0.749382
vt 0.325519 0.662914
vt 0.558585 0.933388
vt 0.587474 0.771368
vt 0.423797 1.000000
vt 0.514733 0.877908
vt 0.227525 0.998440
vt 0.400117 0.928067
vt 0.098293 0.916249
vt 0.246993 0.935319
vt 0.019957 0.792565
vt 0.142144 0.870872
vt 0.000000 0.651783
vt 0.077026 0.770820
vt 0.038791 0.517468
vt 0.059664 0.655568
vt 0.128130 0.411878
vt 0.090909 0.545122
vt 0.252332 0.352056
vt 0.164051 0.458162
vt 0.390585 0.348051
vt 0.266132 0.409014
vt 0.519799 0.401471
vt 0.379720 0.406032
vt 0.617414 0.504839
vt 0.485539 0.450475
vt 0.665272 0.643209
vt 0.564846 0.535911
vt 0.648953 0.795488
vt 0.602448 0.649182
vn 0.188422 -0.977887 -0.090739
vn 0.130392 -0.977887 -0.163506
vn 0.623490 0.000000 -0.781831
vn 0.900969 0.000000 -0.433885
vn 0.046537 -0.977887 -0.203889
vn 0.222522 0.000000 -0.974928
vn -0.046536 -0.977887 -0.203889
vn -0.222521 0.000000 -0.974928
vn -0.130392 -0.977887 -0.163507
vn -0.623489 0.000000 -0.781832
vn -0.188422 -0.977887 -0.090739
vn -0.900968 0.000000 -0.433885
vn -0.209133 -0.977887 0.000000
vn -1.000000 0.000000 -0.000000
vn -0.188422 -0.977887 0.090739
vn -0.900969 0.000000 0.433885
vn -0.130392 -0.977887 0.163506
vn -0.623490 0.000000 0.781831
vn -0.046536 -0.977887 0.203889
vn -0.222521 0.000000 0.974928
vn 0.046536 -0.977887 0.203889
vn 0.222521 0.000000 0.974928
vn 0.130392 -0.977887 0.163506
vn 0.623490 0.000000 0.781832
vn 0.188422 -0.977887 0.090739
vn 0.900969 0.000000 0.433884
vn 0.209133 -0.977887 0.000000
vn 1.000000 0.000000 0.000000
vn 0.000000 -1.000000 0.000000
vn 0.847633 0.338955 -0.408200
vn 0.346000 0.923320 -0.166626
vn 0.384032 0.923320 0.000000
vn 0.940803 0.338955 0.000000
vn 0.586581 0.338955 -0.735549
vn 0.239440 0.923320 -0.300248
vn 0.209349 0.338955 -0.917215
vn 0.085456 0.923320 -0.374404
vn -0.209349 0.338955 -0.917215
vn -0.085455 0.923320 -0.374404
vn -0.586580 0.338955 -0.735549
vn -0.239440 0.923320 -0.300248
vn -0.847633 0.338955 -0.408200
vn -0.346001 0.923320 -0.166626
vn -0.940803 0.338955 -0.000000
vn -0.384032 0.923320 -0.000000
vn -0.847633 0.338955 0.408200
vn -0.346001 0.923320 0.166626
vn -0.586581 0.338955 0.735549
vn -0.239440 0.923320 0.300248
vn -0.209348 0.338955 0.917215
vn -0.085455 0.923320 0.374404
vn 0.209348 0.338955 0.917215
vn 0.085455 0.923320 0.374403
vn 0.586581 0.338955 0.735549
vn 0.239440 0.923320 0.300248
vn 0.847634 0.338955 0.408199
vn 0.346000 0.923320 0.166625
vn -0.000000 1.000000 -0.000000
s 1
g googly_eye
usemtl initialShadingGroup
f 19/37/19 20/38/20 34/52/21 33/51/22
f 20/38/20 21/39/23 35/53/24 34/52/21
f 21/39/23 22/40/25 36/54/26 35/53/24
f 22/40/25 23/41/27 37/55/28 36/54/26
f 23/41/27 24/42/29 38/56/30 37/55/28
f 24/42/29 25/43/31 39/57/32 38/56/30
f 25/43/31 26/44/33 40/58/34 39/57/32
f 26/44/33 27/45/35 41/59/36 40/58/34
f 27/45/35 28/46/37 42/60/38 41/59/36
f 28/46/37 29/47/39 43/61/40 42/60/38
f 29/47/39 30/48/41 44/62/42 43/61/40
f 30/48/41 31/49/43 45/63/44 44/62/42
f 31/49/43 32/50/45 46/64/46 45/63/44
f 32/50/45 19/37/19 33/51/22 46/64/46
f 20/38/20 19/37/19 47/65/47
f 21/39/23 20/38/20 47/65/47
f 22/40/25 21/39/23 47/65/47
f 23/41/27 22/40/25 47/65/47
f 24/42/29 23/41/27 47/65/47
f 25/43/31 24/42/29 47/65/47
f 26/44/33 25/43/31 47/65/47
f 27/45/35 26/44/33 47/65/47
f 28/46/37 27/45/35 47/65/47
f 29/47/39 28/46/37 47/65/47
f 30/48/41 29/47/39 47/65/47
f 31/49/43 30/48/41 47/65/47
f 32/50/45 31/49/43 47/65/47
f 19/37/19 32/50/45 47/65/47
f 49/82/48 50/79/49 75/78/50 76/108/51
f 50/79/49 49/82/48 52/84/52 51/66/53
f 51/66/53 52/84/52 54/86/54 53/67/55
f 53/67/55 54/86/54 56/88/56 55/68/57
f 55/68/57 56/88/56 58/90/58 57/69/59
f 57/69/59 58/90/58 60/92/60 59/70/61
f 59/70/61 60/92/60 62/94/62 61/71/63
f 61/71/63 62/94/62 64/96/64 63/72/65
f 63/72/65 64/96/64 66/98/66 65/73/67
f 65/73/67 66/98/66 68/100/68 67/74/69
f 67/74/69 68/100/68 70/102/70 69/75/71
f 69/75/71 70/102/70 72/104/72 71/76/73
f 71/76/73 72/104/72 74/106/74 73/77/75
f 73/77/75 74/106/74 76/108/51 75/78/50
f 50/79/49 51/66/53 48/80/76
f 51/66/53 53/67/55 48/80/76
f 53/67/55 55/68/57 48/80/76
f 55/68/57 57/69/59 48/80/76
f 57/69/59 59/70/61 48/80/76
f 59/70/61 61/71/63 48/80/76
f 61/71/63 63/72/65 48/80/76
f 63/72/65 65/73/67 48/80/76
f 65/73/67 67/74/69 48/80/76
f 67/74/69 69/75/71 48/80/76
f 69/75/71 71/76/73 48/80/76
f 71/76/73 73/77/75 48/80/76
f 73/77/75 75/78/50 48/80/76
f 75/78/50 50/79/49 48/80/76
f 33/107/22 34/81/21 52/84/52 49/82/48
f 34/81/21 35/83/24 54/86/54 52/84/52
f 35/83/24 36/85/26 56/88/56 54/86/54
f 36/85/26 37/87/28 58/90/58 56/88/56
f 37/87/28 38/89/30 60/92/60 58/90/58
f 38/89/30 39/91/32 62/94/62 60/92/60
f 39/91/32 40/93/34 64/96/64 62/94/62
f 40/93/34 41/95/36 66/98/66 64/96/64
f 41/95/36 42/97/38 68/100/68 66/98/66
f 42/97/38 43/99/40 70/102/70 68/100/68
f 43/99/40 44/101/42 72/104/72 70/102/70
f 44/101/42 45/103/44 74/106/74 72/104/72
f 45/103/44 46/105/46 76/108/51 74/106/74
f 46/105/46 33/107/22 49/82/48 76/108/51
g default
v 0.365410 0.026718 -0.365410
v 0.000000 0.026718 -0.516768
v -0.365410 0.026718 -0.365410
v -0.516768 0.026718 0.000000
v -0.365410 0.026718 0.365410
v 0.000000 0.026718 0.516768
v 0.365410 0.026718 0.365410
v 0.516768 0.026718 0.000000
v 0.365410 0.249281 -0.365410
v 0.000000 0.249281 -0.516768
v -0.365410 0.249281 -0.365410
v -0.516768 0.249281 0.000000
v -0.365410 0.249281 0.365410
v 0.000000 0.249281 0.516768
v 0.365410 0.249281 0.365410
v 0.516768 0.249281 0.000000
v 0.000000 0.026718 0.000000
v 0.000000 0.249281 0.000000
vt 0.993813 0.393398
vt 0.895659 0.296375
vt 0.757648 0.297175
vt 0.660625 0.395330
vt 0.661425 0.533341
vt 0.759579 0.630364
vt 0.897590 0.629564
vt 0.994613 0.531409
vt 0.486209 0.000000
vt 0.550433 0.000000
vt 0.614657 0.000000
vt 0.678880 0.000000
vt 0.743104 0.000000
vt 0.807328 0.000000
vt 0.871552 0.000000
vt 0.935776 0.000000
vt 1.000000 0.000000
vt 0.486209 0.219404
vt 0.550433 0.219404
vt 0.614657 0.219404
vt 0.678880 0.219404
vt 0.743104 0.219404
vt 0.807328 0.219404
vt 0.871552 0.219404
vt 0.935776 0.219404
vt 1.000000 0.219404
vt 0.995259 0.763661
vt 0.897364 0.666376
vt 0.759351 0.666808
vt 0.662067 0.764703
vt 0.662498 0.902715
vt 0.760393 1.000000
vt 0.898406 0.999569
vt 0.995691 0.901674
vt 0.830341 0.456690
vt 0.831618 0.826516
vn 0.533284 -0.656670 -0.533284
vn 0.000000 -0.656670 -0.754178
vn 0.000000 0.656670 -0.754178
vn 0.533284 0.656670 -0.533284
vn -0.533284 -0.656670 -0.533284
vn -0.533284 0.656670 -0.533284
vn -0.754178 -0.656670 -0.000000
vn -0.754178 0.656670 -0.000000
vn -0.533284 -0.656670 0.533284
vn -0.533284 0.656670 0.533284
vn -0.000000 -0.656670 0.754178
vn -0.000000 0.656670 0.754178
vn 0.533284 -0.656670 0.533284
vn 0.533284 0.656670 0.533284
vn 0.754178 -0.656670 -0.000000
vn 0.754178 0.656670 -0.000000
vn 0.000000 -1.000000 -0.000000
vn 0.000000 1.000000 -0.000000
s 1
g pupil1
f 77/117/77 78/118/78 86/127/79 85/126/80
f 78/118/78 79/119/81 87/128/82 86/127/79
f 79/119/81 80/120/83 88/129/84 87/128/82
f 80/120/83 81/121/85 89/130/86 88/129/84
f 81/121/85 82/122/87 90/131/88 89/130/86
f 82/122/87 83/123/89 91/132/90 90/131/88
f 83/123/89 84/124/91 92/133/92 91/132/90
f 84/124/91 77/125/77 85/134/80 92/133/92
f 78/110/78 77/109/77 93/143/93
f 79/111/81 78/110/78 93/143/93
f 80/112/83 79/111/81 93/143/93
f 81/113/85 80/112/83 93/143/93
f 82/114/87 81/113/85 93/143/93
f 83/115/89 82/114/87 93/143/93
f 84/116/91 83/115/89 93/143/93
f 77/109/77 84/116/91 93/143/93
f 85/141/80 86/140/79 94/144/94
f 86/140/79 87/139/82 94/144/94
f 87/139/82 88/138/84 94/144/94
f 88/138/84 89/137/86 94/144/94
f 89/137/86 90/136/88 94/144/94
f 90/136/88 91/135/90 94/144/94
f 91/135/90 92/142/92 94/144/94
f 92/142/92 85/141/80 94/144/94
g default
v 1.255815 -0.063877 -0.604768
v 0.869051 -0.063877 -1.089754
v 0.310162 -0.063877 -1.358902
v -0.310160 -0.063877 -1.358902
v -0.869049 -0.063877 -1.089755
v -1.255813 -0.063877 -0.604769
v -1.393848 -0.063877 -0.000001
v -1.255813 -0.063877 0.604767
v -0.869049 -0.063877 1.089754
v -0.310160 -0.063877 1.358901
v 0.310162 -0.063877 1.358901
v 0.869051 -0.063877 1.089754
v 1.255815 -0.063877 0.604768
v 1.393849 -0.063877 -0.000001
v 1.255815 0.063877 -0.604768
v 0.869051 0.063877 -1.089754
v 0.310162 0.063877 -1.358902
v -0.310160 0.063877 -1.358902
v -0.869049 0.063877 -1.089755
v -1.255813 0.063877 -0.604769
v -1.393848 0.063877 -0.000001
v -1.255813 0.063877 0.604767
v -0.869049 0.063877 1.089754
v -0.310160 0.063877 1.358901
v 0.310162 0.063877 1.358901
v 0.869051 0.063877 1.089754
v 1.255815 0.063877 0.604768
v 1.393849 0.063877 -0.000001
v 0.000000 -0.063877 -0.000001
v 0.000000 0.721803 -0.000001
v 1.255815 0.363897 -0.604768
v 1.071005 0.573619 -0.515768
v 0.741158 0.573619 -0.929383
v 0.869051 0.363897 -1.089754
v 0.264518 0.573619 -1.158922
v 0.310162 0.363897 -1.358902
v -0.264516 0.573619 -1.158922
v -0.310160 0.363897 -1.358902
v -0.741157 0.573619 -0.929383
v -0.869049 0.363897 -1.089755
v -1.071004 0.573619 -0.515769
v -1.255813 0.363897 -0.604769
v -1.188725 0.573619 -0.000001
v -1.393848 0.363897 -0.000001
v -1.071004 0.573619 0.515767
v -1.255813 0.363897 0.604767
v -0.741156 0.573619 0.929383
v -0.869049 0.363897 1.089754
v -0.264517 0.573619 1.158921
v -0.310160 0.363897 1.358901
v 0.264518 0.573619 1.158921
v 0.310162 0.363897 1.358901
v 0.741158 0.573619 0.929383
v 0.869051 0.363897 1.089754
v 1.071005 0.573619 0.515768
v 1.255815 0.363897 0.604768
v 1.188727 0.573619 -0.000001
v 1.393849 0.363897 -0.000001
vt 0.128363 0.019428
vt 0.063943 0.059274
vt 0.023556 0.122530
vt 0.014062 0.196146
vt 0.036876 0.266200
vt 0.086965 0.319545
vt 0.154778 0.346269
vt 0.227326 0.341560
vt 0.290990 0.306440
vt 0.333731 0.247414
vt 0.347302 0.175502
vt 0.328780 0.104235
vt 0.281256 0.047216
vt 0.213134 0.015985
vt 0.123829 0.003489
vt 0.052803 0.047943
vt 0.008882 0.117207
vt -0.001338 0.197597
vt 0.023662 0.274008
vt 0.078401 0.332198
vt 0.152426 0.361311
vt 0.231600 0.356149
vt 0.301088 0.317844
vt 0.347769 0.253451
vt 0.362667 0.174975
vt 0.342549 0.097162
vt 0.290817 0.034754
vt 0.215988 -0.000380
vt 0.180782 0.183489
vt 0.473307 0.826558
vt 0.382802 0.879434
vt 0.262480 0.880672
vt 0.179812 0.830742
vt 0.126830 0.751288
vt 0.112039 0.658507
vt 0.136723 0.569190
vt 0.195644 0.498727
vt 0.278147 0.458979
vt 0.369964 0.456873
vt 0.455200 0.493257
vt 0.518494 0.562649
vt 0.547607 0.653643
vt 0.535085 0.749382
vt 0.325519 0.662914
vt 0.558585 0.933388
vt 0.587474 0.771368
vt 0.423797 1.000000
vt 0.514733 0.877908
vt 0.227525 0.998440
vt 0.400117 0.928067
vt 0.098293 0.916249
vt 0.246993 0.935319
vt 0.019957 0.792565
vt 0.142144 0.870872
vt 0.000000 0.651783
vt 0.077026 0.770820
vt 0.038791 0.517468
vt 0.059664 0.655568
vt 0.128130 0.411878
vt 0.090909 0.545122
vt 0.252332 0.352056
vt 0.164051 0.458162
vt 0.390585 0.348051
vt 0.266132 0.409014
vt 0.519799 0.401471
vt 0.379720 0.406032
vt 0.617414 0.504839
vt 0.485539 0.450475
vt 0.665272 0.643209
vt 0.564846 0.535911
vt 0.648953 0.795488
vt 0.602448 0.649182
vn 0.188422 -0.977887 -0.090739
vn 0.130392 -0.977887 -0.163506
vn 0.623490 0.000000 -0.781831
vn 0.900969 0.000000 -0.433885
vn 0.046537 -0.977887 -0.203889
vn 0.222522 0.000000 -0.974928
vn -0.046536 -0.977887 -0.203889
vn -0.222521 0.000000 -0.974928
vn -0.130392 -0.977887 -0.163507
vn -0.623489 0.000000 -0.781832
vn -0.188422 -0.977887 -0.090739
vn -0.900968 0.000000 -0.433885
vn -0.209133 -0.977887 0.000000
vn -1.000000 0.000000 -0.000000
vn -0.188422 -0.977887 0.090739
vn -0.900969 0.000000 0.433885
vn -0.130392 -0.977887 0.163506
vn -0.623490 0.000000 0.781831
vn -0.046536 -0.977887 0.203889
vn -0.222521 0.000000 0.974928
vn 0.046536 -0.977887 0.203889
vn 0.222521 0.000000 0.974928
vn 0.130392 -0.977887 0.163506
vn 0.623490 0.000000 0.781832
vn 0.188422 -0.977887 0.090739
vn 0.900969 0.000000 0.433884
vn 0.209133 -0.977887 0.000000
vn 1.000000 0.000000 0.000000
vn 0.000000 -1.000000 0.000000
vn 0.847633 0.338955 -0.408200
vn 0.346000 0.923320 -0.166626
vn 0.384032 0.923320 0.000000
vn 0.940803 0.338955 0.000000
vn 0.586581 0.338955 -0.735549
vn 0.239440 0.923320 -0.300248
vn 0.209349 0.338955 -0.917215
vn 0.085456 0.923320 -0.374404
vn -0.209349 0.338955 -0.917215
vn -0.085455 0.923320 -0.374404
vn -0.586580 0.338955 -0.735549
vn -0.239440 0.923320 -0.300248
vn -0.847633 0.338955 -0.408200
vn -0.346001 0.923320 -0.166626
vn -0.940803 0.338955 -0.000000
vn -0.384032 0.923320 -0.000000
vn -0.847633 0.338955 0.408200
vn -0.346001 0.923320 0.166626
vn -0.586581 0.338955 0.735549
vn -0.239440 0.923320 0.300248
vn -0.209348 0.338955 0.917215
vn -0.085455 0.923320 0.374404
vn 0.209348 0.338955 0.917215
vn 0.085455 0.923320 0.374403
vn 0.586581 0.338955 0.735549
vn 0.239440 0.923320 0.300248
vn 0.847634 0.338955 0.408199
vn 0.346000 0.923320 0.166625
vn -0.000000 1.000000 -0.000000
s 1
g googly_eye
f 95/145/95 96/146/96 110/160/97 109/159/98
f 96/146/96 97/147/99 111/161/100 110/160/97
f 97/147/99 98/148/101 112/162/102 111/161/100
f 98/148/101 99/149/103 113/163/104 112/162/102
f 99/149/103 100/150/105 114/164/106 113/163/104
f 100/150/105 101/151/107 115/165/108 114/164/106
f 101/151/107 102/152/109 116/166/110 115/165/108
f 102/152/109 103/153/111 117/167/112 116/166/110
f 103/153/111 104/154/113 118/168/114 117/167/112
f 104/154/113 105/155/115 119/169/116 118/168/114
f 105/155/115 106/156/117 120/170/118 119/169/116
f 106/156/117 107/157/119 121/171/120 120/170/118
f 107/157/119 108/158/121 122/172/122 121/171/120
f 108/158/121 95/145/95 109/159/98 122/172/122
f 96/146/96 95/145/95 123/173/123
f 97/147/99 96/146/96 123/173/123
f 98/148/101 97/147/99 123/173/123
f 99/149/103 98/148/101 123/173/123
f 100/150/105 99/149/103 123/173/123
f 101/151/107 100/150/105 123/173/123
f 102/152/109 101/151/107 123/173/123
f 103/153/111 102/152/109 123/173/123
f 104/154/113 103/153/111 123/173/123
f 105/155/115 104/154/113 123/173/123
f 106/156/117 105/155/115 123/173/123
f 107/157/119 106/156/117 123/173/123
f 108/158/121 107/157/119 123/173/123
f 95/145/95 108/158/121 123/173/123
f 125/190/124 126/187/125 151/186/126 152/216/127
f 126/187/125 125/190/124 128/192/128 127/174/129
f 127/174/129 128/192/128 130/194/130 129/175/131
f 129/175/131 130/194/130 132/196/132 131/176/133
f 131/176/133 132/196/132 134/198/134 133/177/135
f 133/177/135 134/198/134 136/200/136 135/178/137
f 135/178/137 136/200/136 138/202/138 137/179/139
f 137/179/139 138/202/138 140/204/140 139/180/141
f 139/180/141 140/204/140 142/206/142 141/181/143
f 141/181/143 142/206/142 144/208/144 143/182/145
f 143/182/145 144/208/144 146/210/146 145/183/147
f 145/183/147 146/210/146 148/212/148 147/184/149
f 147/184/149 148/212/148 150/214/150 149/185/151
f 149/185/151 150/214/150 152/216/127 151/186/126
f 126/187/125 127/174/129 124/188/152
f 127/174/129 129/175/131 124/188/152
f 129/175/131 131/176/133 124/188/152
f 131/176/133 133/177/135 124/188/152
f 133/177/135 135/178/137 124/188/152
f 135/178/137 137/179/139 124/188/152
f 137/179/139 139/180/141 124/188/152
f 139/180/141 141/181/143 124/188/152
f 141/181/143 143/182/145 124/188/152
f 143/182/145 145/183/147 124/188/152
f 145/183/147 147/184/149 124/188/152
f 147/184/149 149/185/151 124/188/152
f 149/185/151 151/186/126 124/188/152
f 151/186/126 126/187/125 124/188/152
f 109/215/98 110/189/97 128/192/128 125/190/124
f 110/189/97 111/191/100 130/194/130 128/192/128
f 111/191/100 112/193/102 132/196/132 130/194/130
f 112/193/102 113/195/104 134/198/134 132/196/132
f 113/195/104 114/197/106 136/200/136 134/198/134
f 114/197/106 115/199/108 138/202/138 136/200/136
f 115/199/108 116/201/110 140/204/140 138/202/138
f 116/201/110 117/203/112 142/206/142 140/204/140
f 117/203/112 118/205/114 144/208/144 142/206/142
f 118/205/114 119/207/116 146/210/146 144/208/144
f 119/207/116 120/209/118 148/212/148 146/210/146
f 120/209/118 121/211/120 150/214/150 148/212/148
f 121/211/120 122/213/122 152/216/127 150/214/150
f 122/213/122 109/215/98 125/190/124 152/216/127
